<?xml version="1.0" standalone="no"?>
<!DOCTYPE svg PUBLIC "-//W3C//DTD SVG 20010904//EN"
 "http://www.w3.org/TR/2001/REC-SVG-20010904/DTD/svg10.dtd">
<svg version="1.0" xmlns="http://www.w3.org/2000/svg"
 width="220.000000pt" height="221.000000pt" viewBox="0 0 220.000000 221.000000"
 preserveAspectRatio="xMidYMid meet">

<g transform="translate(0.000000,221.000000) scale(0.100000,-0.100000)"
fill="#000000" stroke="none">
<path d="M0 1105 l0 -1105 1100 0 1100 0 0 1105 0 1105 -1100 0 -1100 0 0
-1105z m1241 816 c51 -30 121 -49 147 -40 28 10 79 -7 92 -32 7 -13 7 -25 -2
-39 -14 -21 -28 -27 -28 -10 0 17 -26 11 -45 -10 -17 -19 -17 -20 9 -31 17 -8
26 -20 26 -34 0 -26 15 -41 51 -50 19 -5 28 -15 33 -36 3 -17 10 -28 16 -24 5
3 10 -3 10 -15 0 -12 4 -18 11 -15 5 4 19 -1 29 -10 16 -15 22 -15 35 -5 21
18 19 27 -11 34 -22 6 -25 10 -19 36 6 27 4 30 -18 30 -13 0 -27 3 -30 7 -7 6
79 93 92 93 12 -1 47 -35 54 -52 3 -10 13 -18 21 -18 22 0 28 -17 15 -39 -18
-27 13 -75 43 -68 27 8 51 -17 43 -43 -4 -12 -2 -26 3 -33 5 -7 13 -27 17 -46
9 -42 56 -121 72 -121 18 0 25 -18 18 -48 -7 -35 -71 -64 -86 -41 -9 15 -13
35 -10 57 1 6 -3 12 -10 12 -8 0 -10 17 -6 59 5 44 3 62 -8 71 -11 9 -18 7
-32 -7 -12 -12 -35 -19 -67 -21 -27 -1 -57 -4 -66 -7 -9 -3 -26 4 -38 15 -11
11 -27 20 -34 20 -7 0 -22 7 -32 15 -19 15 -19 15 2 15 12 0 22 5 22 10 0 11
-30 13 -54 4 -8 -3 -12 -12 -9 -20 7 -20 -7 -18 -24 4 -13 15 -14 15 -8 -10 6
-32 -18 -41 -29 -10 -3 9 -11 25 -18 34 -10 14 -9 21 6 37 21 24 18 25 -18 11
-23 -8 -26 -7 -26 10 0 13 -7 20 -20 20 -13 0 -18 5 -14 15 4 8 1 15 -5 15 -6
0 -11 9 -11 21 0 36 -32 17 -58 -34 -14 -26 -31 -47 -39 -47 -8 0 -12 -4 -9
-9 14 -23 -6 -39 -40 -34 -42 7 -44 -2 -4 -22 25 -13 29 -20 27 -48 -2 -17 -9
-31 -15 -30 -6 2 -9 -3 -6 -11 7 -19 74 -19 74 0 0 8 5 14 10 14 11 0 12 -15
4 -47 -4 -13 -12 -23 -19 -23 -8 0 -10 -9 -7 -25 2 -14 8 -22 13 -19 5 3 7 10
4 15 -4 5 0 9 9 9 8 0 16 -5 18 -12 3 -7 10 -8 17 -4 11 7 11 10 0 17 -11 6
-9 12 8 28 26 24 35 17 22 -16 -13 -34 -6 -39 25 -16 25 18 35 43 17 43 -5 0
-12 11 -15 25 -7 27 -26 34 -26 10 0 -8 -7 -15 -16 -15 -8 0 -13 4 -10 9 4 5
3 11 -1 14 -5 2 -3 2 4 1 6 -2 17 4 24 12 10 13 10 17 -2 25 -9 6 1 8 33 6 26
-1 50 -6 54 -10 12 -12 63 -8 76 7 11 12 17 9 40 -17 28 -30 31 -50 5 -29 -14
12 -27 7 -27 -10 0 -5 11 -14 25 -20 21 -9 25 -16 20 -39 -7 -29 9 -41 43 -32
11 2 23 0 26 -6 4 -6 27 -11 50 -11 33 0 47 -5 57 -21 8 -11 23 -21 34 -23 15
-2 20 -11 20 -35 0 -17 6 -36 14 -41 12 -7 12 -11 3 -23 -14 -17 -112 -21
-112 -5 0 6 -6 8 -14 5 -8 -3 -16 2 -19 13 -3 10 -15 20 -28 22 -17 2 -23 9
-21 23 3 20 2 20 -13 1 -15 -19 -15 -19 -35 2 -12 12 -26 22 -32 22 -7 0 -3
-7 8 -16 13 -10 15 -17 7 -20 -7 -3 -10 -11 -7 -19 3 -8 -6 -21 -21 -31 -16
-10 -22 -21 -17 -26 13 -13 49 10 56 35 2 10 9 16 15 12 8 -4 6 -11 -4 -22 -9
-9 -14 -22 -11 -29 3 -8 1 -14 -4 -14 -19 0 -10 -21 14 -31 15 -7 26 -23 30
-43 6 -27 9 -29 19 -15 7 9 18 14 25 11 10 -3 9 -9 -4 -24 -18 -19 -17 -19 10
-9 41 16 54 13 29 -8 -12 -10 -19 -21 -16 -25 10 -9 43 -7 43 3 0 23 30 18 42
-6 22 -45 57 -38 62 13 3 22 8 28 22 26 18 -3 18 -2 2 14 -17 17 -15 26 14 90
6 12 7 31 3 43 -6 19 -2 21 27 21 35 -1 68 -19 68 -39 0 -6 7 -11 15 -11 17 0
20 -16 5 -25 -5 -3 -10 -17 -10 -30 0 -12 -6 -25 -14 -28 -16 -7 -26 -84 -14
-112 6 -13 2 -39 -9 -75 -22 -68 -47 -77 -92 -31 -17 17 -39 31 -50 31 -35 0
-49 10 -44 31 4 12 -1 25 -13 34 -17 12 -21 11 -38 -7 -17 -18 -20 -19 -28 -4
-5 9 -6 21 -3 26 3 6 4 10 1 10 -7 0 -37 -57 -34 -67 0 -4 -4 -20 -10 -34 -5
-14 -13 -47 -16 -73 l-5 -47 24 15 c13 9 31 13 39 10 9 -3 16 -2 16 4 0 6 12
4 30 -4 41 -21 40 -56 -4 -100 -56 -56 -74 -126 -24 -95 17 11 22 11 29 -1 13
-19 12 -22 -20 -52 -16 -16 -32 -38 -35 -50 -3 -11 -15 -25 -28 -31 -13 -5
-24 -20 -26 -32 -4 -26 -29 -38 -48 -22 -11 9 -19 8 -32 -5 -23 -20 -41 -20
-72 1 -32 22 -67 24 -112 5 -35 -15 -54 -45 -25 -41 30 4 47 -2 47 -16 0 -9
-9 -15 -24 -15 -55 0 -86 -12 -92 -36 -7 -26 -29 -32 -37 -10 -3 8 0 29 6 46
11 29 10 34 -10 47 -26 17 -31 61 -11 82 11 11 9 11 -11 1 -24 -12 -24 -12
-18 25 5 29 3 36 -8 32 -7 -3 -16 0 -18 7 -4 9 -22 13 -56 12 -36 -1 -51 3
-51 12 0 9 -5 10 -19 3 -16 -9 -18 -7 -17 26 0 21 -4 38 -11 40 -8 3 -13 -4
-13 -16 0 -28 -14 -26 -34 5 -16 24 -16 25 0 22 11 -2 23 7 31 22 9 18 13 20
13 8 0 -11 5 -15 15 -12 8 4 15 18 15 34 0 23 4 28 25 28 14 0 25 -4 25 -9 0
-5 -6 -9 -14 -9 -17 0 -49 -58 -40 -72 3 -5 12 -7 20 -4 8 3 14 1 14 -4 0 -16
50 -12 56 4 3 8 12 12 20 9 8 -3 14 1 14 11 0 9 -5 16 -11 16 -6 0 -8 9 -4 22
6 17 4 20 -9 15 -12 -5 -16 -1 -16 15 0 17 5 20 28 15 16 -3 35 0 46 9 16 11
21 11 27 2 12 -19 28 2 33 40 3 27 0 31 -17 29 -14 -1 -23 5 -25 18 -2 11 -9
23 -14 26 -7 4 -7 13 1 25 9 17 10 17 11 2 0 -24 25 -23 50 2 11 11 26 20 33
20 6 0 4 -5 -5 -11 -24 -13 -24 -41 0 -32 14 6 15 4 4 -9 -9 -11 -10 -18 -2
-23 16 -10 70 30 70 53 0 7 5 10 11 7 6 -4 8 -13 5 -21 -7 -18 3 -18 24 1 15
13 17 13 17 -1 0 -9 -11 -20 -24 -25 -28 -10 -31 -39 -4 -39 11 0 22 -4 26
-10 3 -6 15 -5 31 2 20 10 27 9 34 -2 6 -10 12 -11 22 -3 12 11 75 26 108 27
27 1 18 49 -12 64 -16 7 -28 21 -28 32 0 10 -8 33 -17 52 -10 18 -18 33 -18
34 0 1 -12 4 -27 8 -22 5 -26 3 -22 -9 5 -11 2 -13 -10 -9 -9 3 -16 12 -16 20
0 16 -16 19 -24 5 -9 -14 -45 -1 -39 15 7 19 -23 59 -33 43 -4 -7 -2 -15 4
-17 17 -5 15 -22 -3 -22 -8 0 -15 8 -16 18 0 13 -2 14 -6 2 -4 -8 -13 -21 -21
-30 -14 -13 -15 -12 -10 11 5 26 3 26 -39 23 -28 -1 -43 1 -41 8 6 16 48 20
48 5 0 -8 3 -8 9 2 5 8 7 20 4 27 -6 17 15 28 31 15 11 -9 15 -6 20 14 7 28 0
49 -14 40 -5 -3 -6 -13 -3 -23 3 -9 4 -15 2 -12 -2 3 -13 15 -23 27 -18 22
-18 23 5 32 14 5 25 18 26 28 1 11 13 37 27 57 13 20 27 42 29 49 2 7 8 9 12
4 5 -4 3 -13 -3 -19 -7 -7 -12 -20 -12 -30 0 -10 -9 -23 -20 -30 -22 -14 -24
-25 -11 -47 7 -11 17 -6 46 24 36 35 37 39 32 88 -4 33 -2 56 6 65 10 13 8 14
-13 7 -13 -4 -32 -17 -42 -29 -9 -11 -17 -16 -18 -9 0 7 -7 10 -17 7 -10 -3
-24 -8 -32 -10 -11 -4 -12 -7 -3 -16 20 -20 12 -118 -10 -118 -5 0 -7 9 -3 19
4 13 0 23 -10 29 -15 8 -16 10 -1 25 24 23 11 67 -19 67 -12 0 -30 -9 -40 -20
-10 -11 -22 -17 -26 -14 -5 3 -21 -4 -36 -16 -26 -20 -28 -20 -40 -4 -7 10
-13 12 -13 6 0 -7 -7 -12 -15 -12 -20 0 -19 24 1 41 13 10 17 10 25 -2 8 -12
12 -11 24 5 8 11 20 16 30 12 30 -11 37 6 10 20 -35 18 -45 18 -45 -2 0 -8 -5
-12 -11 -9 -5 4 -8 12 -6 18 2 7 -10 22 -27 35 -32 23 -56 29 -56 12 0 -5 5
-10 11 -10 5 0 7 -5 3 -12 -13 -20 -36 24 -31 61 3 30 0 35 -24 44 -48 18 -45
87 4 107 17 7 18 9 5 9 -19 1 -55 48 -45 58 4 3 0 17 -7 32 -8 14 -11 41 -9
59 5 29 3 32 -19 32 -13 0 -29 -5 -36 -12 -9 -9 -15 -9 -23 -1 -13 13 1 40 46
89 31 33 31 39 0 79 l-24 33 27 5 c15 3 29 1 31 -4 6 -17 44 -49 59 -49 21 0
73 -56 66 -73 -3 -8 2 -21 10 -30 20 -19 20 -31 2 -46 -11 -9 -15 -9 -18 1 -3
9 -8 6 -16 -8 -13 -25 -5 -64 14 -64 7 0 19 -8 26 -18 7 -10 21 -21 31 -25 9
-3 17 -16 17 -27 0 -11 5 -20 11 -20 7 0 9 -10 5 -27 -4 -18 -3 -23 2 -15 6 8
18 11 35 7 32 -8 56 3 36 16 -9 6 -10 12 -4 17 12 9 13 42 1 60 -5 9 -2 15 13
19 31 8 54 49 41 73 -6 11 -19 20 -29 20 -21 0 -38 57 -21 74 5 5 10 18 10 28
0 10 4 18 9 18 5 0 13 9 16 20 9 30 -13 53 -47 48 -19 -3 -28 0 -28 9 0 16 -2
16 -34 3 -25 -9 -43 0 -28 15 13 13 107 -3 143 -24z m-261 9 c0 -5 -4 -10 -10
-10 -5 0 -10 5 -10 10 0 6 5 10 10 10 6 0 10 -4 10 -10z m-321 -70 c12 -6 29
-5 50 3 29 11 34 10 47 -7 22 -31 17 -44 -23 -63 -46 -22 -50 -47 -8 -51 17
-2 36 -9 44 -15 7 -6 22 -16 34 -22 28 -14 33 -35 8 -35 -11 0 -24 -6 -28 -13
-4 -7 -21 -17 -38 -22 -44 -15 -42 -56 3 -69 21 -6 32 -15 32 -27 0 -12 7 -19
20 -19 11 0 20 -4 20 -9 0 -19 -18 -21 -46 -6 -16 8 -36 15 -46 15 -11 0 -15
6 -11 20 4 14 0 20 -13 20 -25 0 -54 -29 -54 -54 0 -15 3 -17 8 -8 6 9 16 10
34 3 36 -14 47 -34 14 -25 -20 5 -27 2 -33 -12 -9 -25 -34 -43 -55 -40 -10 1
-32 15 -49 31 l-32 28 22 18 c12 10 29 15 36 12 17 -6 20 17 6 32 -9 10 -15
38 -12 61 0 7 10 14 22 17 21 6 21 6 -5 34 -16 17 -26 39 -26 58 0 17 -7 41
-16 53 -18 26 -10 46 14 33 26 -15 52 5 52 39 0 33 3 35 29 20z m-239 -260
c12 0 30 4 40 10 13 7 24 4 44 -11 34 -26 33 -35 -5 -48 -28 -10 -31 -14 -26
-39 4 -21 2 -29 -9 -29 -9 0 -12 7 -8 19 8 27 -11 22 -24 -7 -9 -19 -9 -31 0
-50 9 -20 8 -33 -7 -65 l-18 -39 -29 20 -29 21 25 27 c35 36 35 78 1 87 -27 7
-32 18 -14 30 6 3 9 19 5 34 -3 15 0 39 7 53 11 24 12 25 19 6 4 -10 17 -19
28 -19z m1468 -37 c-4 -22 -22 -20 -26 1 -2 10 3 16 13 16 10 0 15 -7 13 -17z
m30 -48 c2 -2 -8 -15 -21 -31 l-24 -28 -16 31 c-9 17 -14 33 -10 36 5 5 63 -2
71 -8z m-1143 -35 c3 -5 13 -7 23 -4 11 4 8 -2 -8 -14 -13 -11 -35 -23 -48
-25 -21 -4 -22 -3 -6 14 9 10 13 23 9 28 -3 6 1 11 9 11 8 0 17 -4 21 -10z
m-81 -35 c-4 -8 -8 -15 -10 -15 -2 0 -4 7 -4 15 0 8 4 15 10 15 5 0 7 -7 4
-15z m-363 -51 c16 -20 2 -46 -28 -50 -17 -3 -20 1 -16 19 12 53 20 59 44 31z
m374 -24 c-3 -5 -1 -10 4 -10 6 0 11 -7 11 -15 0 -8 -7 -15 -16 -15 -10 0 -14
6 -10 15 3 8 0 15 -7 15 -8 0 -6 4 3 10 19 12 23 12 15 0z m155 -30 c0 -5 -5
-10 -11 -10 -5 0 -7 5 -4 10 3 6 8 10 11 10 2 0 4 -4 4 -10z m210 -59 c-1 -13
-30 34 -30 48 0 9 7 3 15 -13 8 -15 15 -31 15 -35z m-780 40 c0 -6 -4 -13 -10
-16 -5 -3 -10 1 -10 9 0 9 5 16 10 16 6 0 10 -4 10 -9z m440 -16 c14 -8 19
-14 12 -15 -9 0 -11 -7 -7 -19 3 -11 1 -22 -5 -26 -5 -3 -10 -10 -10 -15 0
-12 30 -1 54 19 14 12 20 13 23 4 3 -7 9 -13 14 -13 6 0 8 4 5 9 -4 5 3 7 14
4 20 -5 20 -6 3 -27 -10 -11 -25 -26 -33 -33 -8 -6 -12 -15 -8 -18 4 -4 14 0
23 9 9 9 21 16 26 16 5 0 9 6 9 14 0 21 32 29 49 11 14 -13 14 -15 -2 -15 -9
0 -17 -5 -17 -11 0 -5 4 -8 9 -5 5 3 11 -5 13 -19 3 -13 1 -22 -3 -19 -5 3 -9
-3 -9 -14 0 -23 -35 -57 -49 -48 -5 4 -13 1 -17 -5 -8 -13 16 -31 34 -24 6 2
12 0 12 -5 0 -6 -10 -11 -22 -11 -13 -1 -30 -2 -38 -3 -8 0 -17 8 -20 19 -6
21 -37 29 -33 8 4 -20 -10 -15 -32 10 l-20 24 -18 -24 c-11 -14 -16 -31 -12
-43 5 -16 2 -20 -19 -20 -14 0 -28 5 -31 10 -4 6 -1 9 6 8 6 -2 14 3 16 10 3
6 -2 12 -11 12 -8 0 -21 10 -27 23 -11 20 -11 21 4 9 13 -11 17 -10 26 7 8 14
8 22 1 26 -8 5 -7 11 1 21 8 10 15 11 24 4 10 -8 14 -4 19 16 9 33 -1 45 -18
22 -9 -12 -20 -15 -37 -11 -35 9 -41 25 -16 43 12 8 22 21 23 28 1 6 2 19 3
27 1 17 31 21 31 4 0 -5 5 -7 11 -4 7 5 4 14 -7 26 -16 18 -16 19 7 19 13 -1
35 -7 49 -15z m-200 -25 c0 -5 -4 -10 -10 -10 -5 0 -10 5 -10 10 0 6 5 10 10
10 6 0 10 -4 10 -10z m260 1 c0 -5 -9 -11 -21 -14 -16 -4 -18 -3 -8 9 13 16
29 19 29 5z m255 -11 c3 -5 1 -10 -4 -10 -6 0 -11 5 -11 10 0 6 2 10 4 10 3 0
8 -4 11 -10z m340 -59 c-3 -6 -11 -11 -17 -11 -6 0 -6 6 2 15 14 17 26 13 15
-4z m-1030 -75 c11 5 26 14 33 21 7 7 19 13 25 13 8 0 7 -4 -1 -12 -7 -7 -12
-27 -12 -45 0 -19 -6 -49 -14 -68 -8 -19 -14 -48 -14 -65 2 -59 -35 -64 -65
-7 -9 17 -19 61 -23 95 -7 64 -26 91 -44 61 -5 -7 -12 -11 -15 -7 -4 3 3 16
14 27 12 12 21 31 21 43 0 18 5 15 38 -21 29 -33 42 -40 57 -35z m704 60 c8
-10 9 -16 1 -21 -5 -3 -10 -17 -10 -29 0 -17 8 -25 32 -32 38 -11 63 -51 46
-71 -17 -21 -4 -24 30 -7 18 8 30 20 27 25 -4 5 1 9 9 9 9 0 16 -7 16 -15 0
-8 5 -14 11 -12 6 1 14 -4 16 -10 3 -9 -5 -12 -25 -9 -20 2 -35 -3 -46 -15 -9
-11 -23 -19 -31 -19 -10 0 -13 -5 -9 -12 4 -6 3 -8 -4 -4 -6 3 -15 -2 -21 -11
-8 -15 -10 -15 -11 -3 0 9 5 21 11 27 9 9 7 10 -10 6 -26 -7 -29 18 -3 43 16
17 16 17 -3 10 -39 -17 -68 -20 -60 -7 4 7 13 10 21 7 8 -3 14 -2 14 3 0 5 9
11 20 14 11 3 20 10 20 17 0 12 -32 10 -41 -4 -11 -15 -30 5 -24 25 4 12 2 19
-7 19 -9 0 -10 2 -2 8 7 4 10 24 9 45 -3 39 5 47 24 23z m-564 -90 c-22 -22
-24 -28 -13 -46 11 -18 10 -23 -3 -33 -11 -9 -15 -22 -11 -45 3 -26 1 -31 -11
-26 -21 8 -30 34 -16 50 7 8 9 28 5 47 -5 26 -2 38 14 52 14 13 17 22 10 34
-6 12 -3 19 13 28 19 10 23 9 30 -12 6 -18 2 -29 -18 -49z m-41 24 c-6 -5 -24
21 -24 34 0 6 6 1 14 -10 8 -10 12 -21 10 -24z m134 -24 c-4 -51 -2 -68 11
-81 15 -16 14 -16 -16 -1 l-32 16 17 30 c14 24 15 33 4 50 -7 12 -8 20 -2 20
5 0 10 7 10 15 0 8 3 15 6 15 4 0 4 -29 2 -64z m-156 14 c3 -25 2 -30 -6 -32
-5 -2 -11 7 -12 20 -2 12 1 22 6 22 6 0 11 -4 12 -10z m575 -6 c-3 -3 -12 -4
-19 -1 -8 3 -5 6 6 6 11 1 17 -2 13 -5z m-457 -24 c0 -5 -2 -10 -4 -10 -3 0
-8 5 -11 10 -3 6 -1 10 4 10 6 0 11 -4 11 -10z m450 -20 c-24 -15 -36 -11 -14
4 10 8 21 12 24 10 2 -3 -2 -9 -10 -14z m-465 -60 c2 -13 -2 -20 -11 -20 -10
0 -14 11 -14 38 1 30 3 34 11 19 6 -9 12 -26 14 -37z m535 -31 c0 -4 -7 -12
-15 -19 -8 -7 -13 -16 -10 -20 6 -9 17 -8 54 4 28 9 71 -10 71 -32 0 -9 7 -13
20 -9 30 8 24 -8 -7 -20 l-28 -10 25 -12 c25 -12 25 -12 1 -7 -13 3 -30 -2
-38 -10 -17 -16 -33 -18 -33 -4 0 6 -11 15 -25 20 -25 10 -35 30 -13 30 6 0 9
3 6 6 -4 3 -16 1 -27 -6 -17 -9 -21 -8 -21 6 0 10 -6 14 -14 11 -8 -3 -17 -3
-20 0 -7 7 25 63 36 63 4 0 8 4 8 10 0 5 -8 6 -17 3 -16 -6 -16 -5 -5 10 11
13 17 14 33 4 10 -6 19 -15 19 -18z m-500 0 c0 -6 -4 -7 -10 -4 -5 3 -10 -1
-10 -9 0 -9 12 -16 33 -18 26 -2 32 -7 31 -25 0 -13 2 -21 4 -18 3 3 11 0 19
-6 19 -16 18 21 -2 47 -16 21 -20 48 -6 39 5 -3 12 -1 16 5 9 14 25 3 25 -17
0 -9 -6 -13 -15 -9 -13 4 -14 2 -5 -14 6 -11 14 -20 19 -20 4 0 6 -13 3 -30
-3 -22 -10 -30 -25 -30 -16 0 -18 -3 -9 -12 7 -7 12 -19 12 -27 -1 -14 -3 -13
-14 2 -17 22 -27 22 -19 0 4 -11 3 -14 -5 -9 -7 4 -12 3 -12 -3 0 -5 7 -11 16
-13 18 -3 30 -58 13 -58 -17 0 -9 -29 10 -39 16 -9 18 -8 15 12 -4 20 -4 21 5
2 12 -26 66 -77 77 -73 27 9 9 -74 -22 -103 -22 -21 -23 -24 -7 -41 9 -10 22
-18 28 -18 7 0 16 -7 19 -15 4 -13 10 -14 26 -5 11 6 18 15 15 21 -7 11 34 11
92 0 32 -6 46 -5 54 6 14 16 22 10 26 -18 2 -16 -1 -19 -17 -14 -33 10 -81 -4
-78 -23 3 -14 -5 -16 -47 -13 -27 2 -62 9 -77 17 -15 8 -34 14 -43 14 -8 0
-24 9 -36 21 -22 22 -59 18 -59 -7 0 -8 -4 -14 -10 -14 -5 0 -10 23 -10 50 0
36 -4 50 -14 50 -8 0 -16 -7 -20 -15 -3 -8 -11 -15 -17 -15 -8 0 -10 15 -7 45
3 25 2 45 -3 45 -5 0 -9 -5 -9 -11 0 -6 -6 -9 -12 -6 -7 2 -25 -2 -39 -9 l-26
-13 -43 91 c-31 68 -39 93 -29 98 7 5 18 6 26 3 7 -3 13 0 13 6 0 6 7 11 15
11 8 0 12 -6 9 -14 -6 -17 16 -33 25 -18 9 14 34 -5 54 -43 13 -25 16 -26 17
-10 0 12 -5 26 -11 32 -13 13 -8 69 6 66 6 -1 14 -16 19 -33 6 -20 14 -29 23
-26 7 3 13 -2 14 -12 0 -14 2 -14 6 -2 3 8 12 23 21 32 13 16 12 19 -9 37 -19
16 -22 22 -11 32 21 22 13 37 -22 43 -26 5 -39 15 -50 38 -18 35 -21 72 -6 63
6 -3 10 -15 10 -26 0 -10 5 -19 10 -19 6 0 10 -7 10 -15 0 -8 5 -15 10 -15 13
0 13 23 -1 37 -14 14 -3 67 11 58 6 -3 10 -11 10 -16z m35 1 c3 -5 1 -10 -4
-10 -6 0 -11 5 -11 10 0 6 2 10 4 10 3 0 8 -4 11 -10z m321 -57 c-11 -11 -19
6 -11 24 8 17 8 17 12 0 3 -10 2 -21 -1 -24z m289 27 c4 -6 -5 -10 -20 -10
-15 0 -24 4 -20 10 3 6 12 10 20 10 8 0 17 -4 20 -10z m105 -14 c0 -3 -4 -8
-10 -11 -5 -3 -10 -1 -10 4 0 6 5 11 10 11 6 0 10 -2 10 -4z m-503 -42 c-3 -3
-12 -4 -19 -1 -8 3 -5 6 6 6 11 1 17 -2 13 -5z m-42 -50 c-12 -12 -13 -19 -4
-30 9 -11 8 -18 -1 -29 -11 -13 -8 -15 14 -15 14 0 27 -3 27 -7 5 -30 4 -61
-3 -57 -4 3 -8 15 -8 26 0 18 -4 20 -35 15 -24 -4 -35 -2 -35 7 0 21 -26 49
-39 42 -13 -9 9 -50 38 -73 14 -11 14 -12 -1 -13 -33 0 -78 114 -54 138 4 4
18 -5 31 -20 13 -16 29 -28 35 -28 16 0 12 40 -5 46 -11 5 -12 8 -2 18 20 20
41 24 50 9 5 -8 2 -19 -8 -29z m51 16 c0 -11 -4 -20 -8 -20 -4 0 -8 9 -8 20 0
11 4 20 8 20 4 0 8 -9 8 -20z m-16 -36 c0 -2 -7 -4 -15 -4 -8 0 -15 4 -15 10
0 5 7 7 15 4 8 -4 15 -8 15 -10z m383 -9 c-3 -9 -8 -14 -10 -11 -3 3 -2 9 2
15 9 16 15 13 8 -4z m-299 -5 c17 -5 43 -12 59 -15 21 -4 27 -11 27 -31 0 -19
4 -25 15 -20 8 3 15 1 15 -4 0 -4 -13 -11 -30 -15 -16 -4 -34 -14 -40 -23 -6
-11 -12 -13 -17 -6 -5 6 -25 10 -46 9 -34 -2 -38 1 -35 21 2 14 -6 30 -22 43
-24 21 -25 21 -6 36 23 18 38 19 80 5z m416 -10 c0 -5 -5 -10 -11 -10 -5 0 -7
5 -4 10 3 6 8 10 11 10 2 0 4 -4 4 -10z m-295 -30 c3 -5 1 -10 -4 -10 -6 0
-11 5 -11 10 0 6 2 10 4 10 3 0 8 -4 11 -10z m891 -57 c-10 -10 -19 5 -10 18
6 11 8 11 12 0 2 -7 1 -15 -2 -18z m-774 -45 c-7 -7 -12 -8 -12 -2 0 14 12 26
19 19 2 -3 -1 -11 -7 -17z m743 2 c0 -7 -6 -15 -12 -17 -8 -3 -13 4 -13 17 0
13 5 20 13 18 6 -3 12 -11 12 -18z m-905 -9 c0 -13 -63 -72 -69 -65 -3 2 11
20 30 38 39 39 39 39 39 27z m847 -38 c5 -13 -25 -26 -38 -17 -6 3 -5 11 2 20
13 16 31 14 36 -3z m-727 -33 c0 -4 -13 -7 -29 -6 -21 1 -26 4 -20 12 10 12
49 7 49 -6z m-496 -163 c18 -13 18 -14 1 -35 -23 -26 -35 -20 -35 19 0 32 7
36 34 16z m345 -21 c8 -5 16 -4 21 4 6 9 9 9 15 1 3 -7 15 -9 25 -6 25 8 35
-25 17 -56 -47 -85 -51 -90 -77 -83 -14 3 -52 12 -85 19 -72 16 -125 41 -125
61 0 19 25 18 55 -2 19 -12 28 -14 39 -5 7 6 21 9 30 5 10 -4 16 -1 16 9 0 51
33 75 69 53z m194 -158 c14 3 18 1 15 -9 -4 -13 -76 -34 -85 -25 -3 2 0 14 7
25 8 16 15 19 27 13 9 -5 25 -7 36 -4z"/>
<path d="M1240 1819 c0 -5 5 -7 10 -4 6 3 10 8 10 11 0 2 -4 4 -10 4 -5 0 -10
-5 -10 -11z"/>
<path d="M1302 1798 c5 -15 58 -24 58 -10 0 5 -10 12 -22 16 -34 9 -40 7 -36
-6z"/>
<path d="M966 1692 c-3 -6 -1 -14 5 -17 15 -10 25 3 12 16 -7 7 -13 7 -17 1z"/>
<path d="M977 1607 c-15 -5 -27 -13 -27 -18 0 -14 38 -26 71 -21 28 4 41 22
17 22 -10 0 -10 2 0 9 21 13 -28 19 -61 8z"/>
<path d="M1070 1580 c0 -5 4 -10 9 -10 6 0 13 5 16 10 3 6 -1 10 -9 10 -9 0
-16 -4 -16 -10z"/>
<path d="M1483 1583 c9 -2 23 -2 30 0 6 3 -1 5 -18 5 -16 0 -22 -2 -12 -5z"/>
<path d="M1541 1553 c6 -18 15 -33 20 -33 15 0 10 16 -11 41 l-20 24 11 -32z"/>
<path d="M1055 1530 c-8 -16 -15 -33 -15 -39 0 -11 38 -2 47 12 3 6 1 7 -5 3
-7 -4 -12 -3 -12 2 0 5 9 12 20 15 26 7 26 37 0 37 -11 0 -26 -12 -35 -30z"/>
<path d="M1667 1544 c-4 -4 -7 -14 -7 -23 0 -11 3 -12 11 -4 6 6 10 16 7 23
-2 6 -7 8 -11 4z"/>
<path d="M1597 1533 c-12 -11 -8 -23 8 -23 8 0 15 7 15 15 0 16 -12 20 -23 8z"/>
<path d="M1170 1469 c0 -6 -7 -9 -15 -6 -8 4 -17 2 -20 -3 -3 -5 -12 -7 -19
-4 -8 3 -17 0 -22 -7 -5 -8 -3 -10 5 -5 8 5 14 0 18 -13 3 -12 10 -21 15 -21
5 0 6 5 3 10 -3 6 5 14 19 20 14 5 26 16 26 25 0 8 -2 15 -5 15 -3 0 -5 -5 -5
-11z"/>
<path d="M1040 1430 c0 -5 5 -10 11 -10 5 0 7 5 4 10 -3 6 -8 10 -11 10 -2 0
-4 -4 -4 -10z"/>
<path d="M1470 1399 c0 -5 5 -7 10 -4 6 3 10 8 10 11 0 2 -4 4 -10 4 -5 0 -10
-5 -10 -11z"/>
<path d="M1063 1384 c-17 -17 -16 -24 1 -24 7 0 19 -7 26 -15 7 -8 18 -15 24
-15 6 0 3 7 -8 15 -10 7 -15 18 -12 23 10 17 -18 32 -31 16z"/>
<path d="M1117 1383 c-3 -4 1 -17 9 -28 10 -13 14 -15 14 -4 0 20 -16 43 -23
32z"/>
<path d="M1157 1374 c-3 -4 5 -16 19 -26 32 -25 43 -17 15 11 -23 23 -25 24
-34 15z"/>
<path d="M1440 1365 c-10 -12 -10 -15 4 -15 9 0 16 7 16 15 0 8 -2 15 -4 15
-2 0 -9 -7 -16 -15z"/>
<path d="M1490 1349 c0 -5 5 -7 10 -4 6 3 10 8 10 11 0 2 -4 4 -10 4 -5 0 -10
-5 -10 -11z"/>
<path d="M1464 1289 c-3 -6 -4 -11 -3 -12 2 -1 14 -8 27 -15 27 -15 29 -2 2
20 -12 11 -22 13 -26 7z"/>
<path d="M1525 1250 c-3 -5 -1 -10 4 -10 6 0 11 5 11 10 0 6 -2 10 -4 10 -3 0
-8 -4 -11 -10z"/>
<path d="M1646 1241 c-18 -20 -8 -35 17 -25 8 3 18 0 22 -6 5 -8 11 -6 20 7
11 14 10 19 -4 30 -23 17 -35 16 -55 -6z"/>
<path d="M1426 1243 c-10 -11 -7 -25 5 -18 7 5 9 -4 6 -26 -3 -21 -9 -33 -17
-31 -15 3 -31 -18 -24 -30 3 -5 11 -5 17 -1 7 4 19 8 27 8 21 0 27 90 6 98 -8
3 -17 3 -20 0z"/>
<path d="M1680 1176 c0 -9 5 -16 10 -16 6 0 10 4 10 9 0 6 -4 13 -10 16 -5 3
-10 -1 -10 -9z"/>
<path d="M1442 1122 c-9 -6 -6 -14 11 -30 l23 -22 -1 27 c0 28 -12 38 -33 25z"/>
<path d="M1379 1108 c0 -2 -2 -15 -3 -30 -2 -26 -1 -26 17 -10 11 9 21 16 23
15 2 -2 4 -1 4 2 0 3 0 8 0 11 0 4 -7 1 -15 -6 -14 -11 -19 -7 -16 13 1 6 -8
11 -10 5z"/>
<path d="M1490 995 c0 -8 5 -15 10 -15 6 0 10 7 10 15 0 8 -4 15 -10 15 -5 0
-10 -7 -10 -15z"/>
<path d="M1385 989 c-10 -15 3 -25 16 -12 7 7 7 13 1 17 -6 3 -14 1 -17 -5z"/>
<path d="M1545 910 c-3 -5 -1 -10 4 -10 6 0 11 5 11 10 0 6 -2 10 -4 10 -3 0
-8 -4 -11 -10z"/>
<path d="M1185 770 c-3 -5 3 -10 14 -10 12 0 21 5 21 10 0 6 -6 10 -14 10 -8
0 -18 -4 -21 -10z"/>
<path d="M1280 741 c0 -6 5 -13 10 -16 6 -3 10 1 10 9 0 9 -4 16 -10 16 -5 0
-10 -4 -10 -9z"/>
<path d="M1285 690 c-3 -5 -1 -10 4 -10 6 0 11 5 11 10 0 6 -2 10 -4 10 -3 0
-8 -4 -11 -10z"/>
<path d="M1216 653 c-6 -14 -5 -15 5 -6 7 7 10 15 7 18 -3 3 -9 -2 -12 -12z"/>
<path d="M1253 631 c-12 -11 -24 -17 -27 -14 -4 4 -14 8 -24 9 -9 2 -25 4 -36
6 -20 3 -45 -26 -33 -39 4 -4 17 -2 27 5 16 10 18 9 14 -3 -4 -8 -11 -15 -16
-15 -12 0 -37 -30 -38 -43 0 -5 5 -5 12 -1 8 5 9 2 5 -11 -6 -15 -3 -17 23
-12 17 4 30 2 30 -3 0 -12 53 -14 64 -2 11 10 50 9 58 -3 5 -6 8 -5 8 3 0 10
5 10 20 2 20 -11 20 -19 -7 -78 -13 -31 -13 -35 3 -47 12 -8 26 -10 40 -5 13
5 26 4 32 -2 7 -7 13 -4 21 10 6 12 25 22 48 25 50 8 78 29 70 52 -4 9 -16 19
-27 22 -12 3 -27 21 -35 39 -8 19 -19 34 -24 34 -6 0 -11 7 -11 15 0 19 -46
49 -65 41 -10 -4 -15 1 -15 14 0 11 -4 20 -10 20 -5 0 -10 -7 -10 -16 0 -9 -6
-14 -12 -11 -7 2 -23 0 -35 -4 -22 -8 -28 -2 -24 24 2 11 -3 9 -26 -12z m-28
-31 c3 -6 -1 -7 -9 -4 -18 7 -21 14 -7 14 6 0 13 -4 16 -10z"/>
<path d="M1540 620 c-8 -5 -11 -12 -7 -16 4 -4 13 -2 19 4 15 15 7 24 -12 12z"/>
<path d="M1616 601 c-4 -7 -5 -15 -2 -18 9 -9 19 4 14 18 -4 11 -6 11 -12 0z"/>
<path d="M1245 491 c-6 -5 -19 -11 -30 -13 -27 -5 -21 -23 8 -23 15 -1 27 8
34 22 11 23 5 30 -12 14z"/>
<path d="M606 1591 c-4 -7 -5 -15 -2 -18 9 -9 19 4 14 18 -4 11 -6 11 -12 0z"/>
<path d="M668 1243 c-21 -5 -24 -23 -4 -23 8 0 16 7 20 15 3 8 4 14 3 14 -1
-1 -10 -3 -19 -6z"/>
<path d="M701 1203 c-1 -18 4 -33 9 -33 12 0 12 17 0 45 -7 17 -9 15 -9 -12z"/>
<path d="M747 1167 c-3 -8 1 -14 9 -14 16 0 19 13 5 21 -5 3 -11 0 -14 -7z"/>
<path d="M820 1139 c0 -5 5 -7 10 -4 6 3 10 8 10 11 0 2 -4 4 -10 4 -5 0 -10
-5 -10 -11z"/>
<path d="M755 1110 c3 -5 8 -10 11 -10 2 0 4 5 4 10 0 6 -5 10 -11 10 -5 0 -7
-4 -4 -10z"/>
<path d="M1121 899 c-15 -26 -11 -31 11 -15 9 7 13 17 9 24 -4 7 -11 5 -20 -9z"/>
<path d="M574 915 c-7 -17 4 -37 17 -30 12 8 12 45 -1 45 -6 0 -13 -7 -16 -15z"/>
<path d="M472 708 c2 -6 10 -14 16 -16 7 -2 10 2 6 12 -7 18 -28 22 -22 4z"/>
<path d="M572 694 c-9 -18 -9 -24 3 -34 20 -16 23 -12 15 25 -6 29 -6 29 -18
9z"/>
<path d="M630 674 c0 -8 5 -12 10 -9 6 3 10 10 10 16 0 5 -4 9 -10 9 -5 0 -10
-7 -10 -16z"/>
<path d="M693 643 c15 -27 23 -33 25 -21 2 9 -5 26 -15 37 -28 34 -34 24 -10
-16z"/>
<path d="M830 795 c-11 -13 -8 -15 14 -15 23 0 25 -2 16 -25 -8 -21 -7 -25 9
-25 10 0 22 7 25 16 3 8 2 12 -4 9 -6 -3 -10 2 -10 12 1 15 5 13 25 -9 27 -31
37 -36 29 -13 -4 8 -2 15 4 15 5 0 12 7 15 14 4 9 1 13 -6 10 -7 -2 -32 2 -56
11 -52 18 -46 18 -61 0z"/>
</g>
</svg>
